<?xml version="1.0" encoding="UTF-8" standalone="no"?>
<!DOCTYPE svg PUBLIC "-//W3C//DTD SVG 1.1//EN"
 "http://www.w3.org/Graphics/SVG/1.1/DTD/svg11.dtd">
<!-- Generated by graphviz version 2.44.1 (0)
 -->
<!-- Title: G Pages: 1 -->
<svg width="385pt" height="747pt"
 viewBox="0.00 0.00 385.43 747.00" xmlns="http://www.w3.org/2000/svg" xmlns:xlink="http://www.w3.org/1999/xlink">
<g id="graph0" class="graph" transform="scale(1 1) rotate(0) translate(4 743)">
<title>G</title>
<polygon fill="white" stroke="transparent" points="-4,4 -4,-743 381.43,-743 381.43,4 -4,4"/>
<!-- read_data -->
<g id="node1" class="node">
<title>read_data</title>
<polygon fill="none" stroke="black" points="326.43,-739 204.43,-739 204.43,-703 326.43,-703 326.43,-739"/>
<text text-anchor="middle" x="265.43" y="-717.3" font-family="Times,serif" font-size="14.00">Read upto 64 bytes</text>
</g>
<!-- data_remaining -->
<g id="node2" class="node">
<title>data_remaining</title>
<polygon fill="none" stroke="black" points="202.43,-666 104.23,-648 202.43,-630 300.63,-648 202.43,-666"/>
<text text-anchor="middle" x="202.43" y="-644.3" font-family="Times,serif" font-size="14.00">Data remaining?</text>
</g>
<!-- read_data&#45;&gt;data_remaining -->
<g id="edge1" class="edge">
<title>read_data&#45;&gt;data_remaining</title>
<path fill="none" stroke="black" d="M250.18,-702.81C241.79,-693.36 231.28,-681.51 222.26,-671.35"/>
<polygon fill="black" stroke="black" points="224.66,-668.79 215.41,-663.63 219.43,-673.43 224.66,-668.79"/>
</g>
<!-- initial_process -->
<g id="node3" class="node">
<title>initial_process</title>
<polygon fill="none" stroke="black" points="377.43,-579 279.43,-579 279.43,-543 377.43,-543 377.43,-579"/>
<text text-anchor="middle" x="328.43" y="-557.3" font-family="Times,serif" font-size="14.00">Process Chunk</text>
</g>
<!-- data_remaining&#45;&gt;initial_process -->
<g id="edge3" class="edge">
<title>data_remaining&#45;&gt;initial_process</title>
<path fill="none" stroke="black" d="M222.39,-633.53C241.71,-620.5 271.38,-600.49 294.42,-584.94"/>
<polygon fill="black" stroke="black" points="296.56,-587.72 302.89,-579.22 292.65,-581.92 296.56,-587.72"/>
<text text-anchor="middle" x="282.93" y="-600.8" font-family="Times,serif" font-size="14.00">Yes</text>
</g>
<!-- zero_unmodified_words -->
<g id="node4" class="node">
<title>zero_unmodified_words</title>
<polygon fill="none" stroke="black" points="261.43,-579 115.43,-579 115.43,-543 261.43,-543 261.43,-579"/>
<text text-anchor="middle" x="188.43" y="-557.3" font-family="Times,serif" font-size="14.00">Zero unmodified words</text>
</g>
<!-- data_remaining&#45;&gt;zero_unmodified_words -->
<g id="edge2" class="edge">
<title>data_remaining&#45;&gt;zero_unmodified_words</title>
<path fill="none" stroke="black" d="M199.66,-630.21C197.74,-618.52 195.13,-602.69 192.91,-589.22"/>
<polygon fill="black" stroke="black" points="196.31,-588.35 191.24,-579.05 189.41,-589.49 196.31,-588.35"/>
<text text-anchor="middle" x="203.93" y="-600.8" font-family="Times,serif" font-size="14.00">No</text>
</g>
<!-- initial_process&#45;&gt;read_data -->
<g id="edge4" class="edge">
<title>initial_process&#45;&gt;read_data</title>
<path fill="none" stroke="black" d="M327.88,-579.36C326.63,-600.67 322.57,-637.5 309.43,-666 304.67,-676.32 297.47,-686.34 290.27,-694.89"/>
<polygon fill="black" stroke="black" points="287.46,-692.79 283.45,-702.6 292.7,-697.43 287.46,-692.79"/>
</g>
<!-- Append Sentinel -->
<g id="node8" class="node">
<title>Append Sentinel</title>
<polygon fill="none" stroke="black" points="134.93,-469.5 134.93,-505.5 241.93,-505.5 241.93,-469.5 134.93,-469.5"/>
<text text-anchor="middle" x="188.43" y="-483.8" font-family="Times,serif" font-size="14.00">Append Sentinel</text>
</g>
<!-- zero_unmodified_words&#45;&gt;Append Sentinel -->
<g id="edge5" class="edge">
<title>zero_unmodified_words&#45;&gt;Append Sentinel</title>
<path fill="none" stroke="black" d="M188.43,-542.69C188.43,-534.61 188.43,-524.8 188.43,-515.76"/>
<polygon fill="black" stroke="black" points="191.93,-515.65 188.43,-505.65 184.93,-515.65 191.93,-515.65"/>
</g>
<!-- secondary_processing -->
<g id="node5" class="node">
<title>secondary_processing</title>
<polygon fill="none" stroke="black" points="177.43,-345 119.43,-345 119.43,-309 177.43,-309 177.43,-345"/>
<text text-anchor="middle" x="148.43" y="-323.3" font-family="Times,serif" font-size="14.00">Process</text>
</g>
<!-- Zero Chunk -->
<g id="node9" class="node">
<title>Zero Chunk</title>
<polygon fill="none" stroke="black" points="98.43,-221.5 98.43,-257.5 180.43,-257.5 180.43,-221.5 98.43,-221.5"/>
<text text-anchor="middle" x="139.43" y="-235.8" font-family="Times,serif" font-size="14.00">Zero Chunk</text>
</g>
<!-- secondary_processing&#45;&gt;Zero Chunk -->
<g id="edge8" class="edge">
<title>secondary_processing&#45;&gt;Zero Chunk</title>
<path fill="none" stroke="black" d="M146.61,-308.7C145.37,-296.99 143.72,-281.29 142.31,-267.9"/>
<polygon fill="black" stroke="black" points="145.77,-267.36 141.25,-257.78 138.81,-268.09 145.77,-267.36"/>
</g>
<!-- room_for_length -->
<g id="node6" class="node">
<title>room_for_length</title>
<polygon fill="none" stroke="black" points="188.43,-432 0.07,-414 188.43,-396 376.78,-414 188.43,-432"/>
<text text-anchor="middle" x="188.43" y="-410.3" font-family="Times,serif" font-size="14.00">Is there room to append the length</text>
</g>
<!-- room_for_length&#45;&gt;secondary_processing -->
<g id="edge7" class="edge">
<title>room_for_length&#45;&gt;secondary_processing</title>
<path fill="none" stroke="black" d="M180.71,-396.61C175.07,-384.62 167.29,-368.09 160.79,-354.27"/>
<polygon fill="black" stroke="black" points="163.95,-352.77 156.53,-345.21 157.62,-355.75 163.95,-352.77"/>
<text text-anchor="middle" x="179.93" y="-366.8" font-family="Times,serif" font-size="14.00">No</text>
</g>
<!-- append_length -->
<g id="node7" class="node">
<title>append_length</title>
<polygon fill="none" stroke="black" points="221.93,-184 124.93,-184 124.93,-148 221.93,-148 221.93,-184"/>
<text text-anchor="middle" x="173.43" y="-162.3" font-family="Times,serif" font-size="14.00">Append length</text>
</g>
<!-- room_for_length&#45;&gt;append_length -->
<g id="edge10" class="edge">
<title>room_for_length&#45;&gt;append_length</title>
<path fill="none" stroke="black" d="M190.77,-395.94C191.45,-390.25 192.09,-383.86 192.43,-378 192.81,-371.34 192.5,-369.67 192.43,-363 191.76,-299.88 199.15,-283.37 189.43,-221 188.04,-212.07 185.56,-202.55 182.97,-194.03"/>
<polygon fill="black" stroke="black" points="186.22,-192.68 179.82,-184.24 179.55,-194.83 186.22,-192.68"/>
<text text-anchor="middle" x="204.93" y="-279.8" font-family="Times,serif" font-size="14.00">Yes</text>
</g>
<!-- Process -->
<g id="node10" class="node">
<title>Process</title>
<polygon fill="none" stroke="black" points="144.43,-74.5 144.43,-110.5 202.43,-110.5 202.43,-74.5 144.43,-74.5"/>
<text text-anchor="middle" x="173.43" y="-88.8" font-family="Times,serif" font-size="14.00">Process</text>
</g>
<!-- append_length&#45;&gt;Process -->
<g id="edge11" class="edge">
<title>append_length&#45;&gt;Process</title>
<path fill="none" stroke="black" d="M173.43,-147.69C173.43,-139.61 173.43,-129.8 173.43,-120.76"/>
<polygon fill="black" stroke="black" points="176.93,-120.65 173.43,-110.65 169.93,-120.65 176.93,-120.65"/>
</g>
<!-- Append Sentinel&#45;&gt;room_for_length -->
<g id="edge6" class="edge">
<title>Append Sentinel&#45;&gt;room_for_length</title>
<path fill="none" stroke="black" d="M188.43,-469.19C188.43,-461.11 188.43,-451.3 188.43,-442.26"/>
<polygon fill="black" stroke="black" points="191.93,-442.15 188.43,-432.15 184.93,-442.15 191.93,-442.15"/>
</g>
<!-- Zero Chunk&#45;&gt;append_length -->
<g id="edge9" class="edge">
<title>Zero Chunk&#45;&gt;append_length</title>
<path fill="none" stroke="black" d="M147.66,-221.19C151.63,-212.85 156.47,-202.66 160.88,-193.38"/>
<polygon fill="black" stroke="black" points="164.14,-194.68 165.27,-184.15 157.82,-191.68 164.14,-194.68"/>
</g>
<!-- Print Digest -->
<g id="node11" class="node">
<title>Print Digest</title>
<polygon fill="none" stroke="black" points="132.43,-0.5 132.43,-36.5 214.43,-36.5 214.43,-0.5 132.43,-0.5"/>
<text text-anchor="middle" x="173.43" y="-14.8" font-family="Times,serif" font-size="14.00">Print Digest</text>
</g>
<!-- Process&#45;&gt;Print Digest -->
<g id="edge12" class="edge">
<title>Process&#45;&gt;Print Digest</title>
<path fill="none" stroke="black" d="M173.43,-74.44C173.43,-66.31 173.43,-56.38 173.43,-47.2"/>
<polygon fill="black" stroke="black" points="176.93,-46.94 173.43,-36.94 169.93,-46.94 176.93,-46.94"/>
</g>
</g>
</svg>
